<svg width="35" height="35" viewBox="0 0 35 35" fill="none" xmlns="http://www.w3.org/2000/svg">
<path d="M8.75 14.5833V11.6666C8.75 6.83954 10.2083 2.91663 17.5 2.91663C24.7917 2.91663 26.25 6.83954 26.25 11.6666V14.5833M13.8542 23.3333C13.8542 24.3002 14.2383 25.2276 14.922 25.9113C15.6057 26.595 16.5331 26.9791 17.5 26.9791C18.4669 26.9791 19.3943 26.595 20.078 25.9113C20.7617 25.2276 21.1458 24.3002 21.1458 23.3333C21.1458 22.3664 20.7617 21.439 20.078 20.7553C19.3943 20.0716 18.4669 19.6875 17.5 19.6875" stroke="#23A6F0" stroke-width="2" stroke-linecap="round" stroke-linejoin="round"/>
<path d="M32.0833 24.7917V21.875C32.0833 16.0417 30.625 14.5834 24.7917 14.5834H10.2083C4.37501 14.5834 2.91667 16.0417 2.91667 21.875V24.7917C2.91667 30.625 4.37501 32.0834 10.2083 32.0834H24.7917C27.3583 32.0834 29.0792 31.8063 30.2021 30.9896" stroke="#23A6F0" stroke-width="2" stroke-linecap="round" stroke-linejoin="round"/>
</svg>
